# xmcd CD database file
#
# Track frame offsets:
#	150
#	15678
#	34655
#	50249
#	68277
#	87145
#
# Disc length: 1354 seconds
#
# Revision: 0
# Processed by: cddbd v1.4PL0 Copyright (c) Steve Scherf et al.
# Submitted via: Feurio! 1.66 - http://www.feurio.com
#
DISCID=41054806
DTITLE=Bob Egan - Lonesome Destiny
DYEAR=2003
DGENRE=Country
TTITLE0=Liloette
TTITLE1=Sarah's Song
TTITLE2=Just A Man
TTITLE3=Desire
TTITLE4=Enter The Desert
TTITLE5=Muddy Waters
EXTD=
EXTT0=
EXTT1=
EXTT2=
EXTT3=
EXTT4=
EXTT5=
PLAYORDER=
